<svg width="120" height="24" viewBox="0 0 120 24" fill="none" xmlns="http://www.w3.org/2000/svg">
<path d="M6.5745 19.9618L8.00718 13.7926L3.2207 9.6446L9.53603 9.09655L11.9995 3.2793L14.4629 9.09655L20.7782 9.6446L15.9917 13.7926L17.4244 19.9618L11.9995 16.6888L6.5745 19.9618Z" fill="#FFA41C"/>
<path d="M30.5745 19.9618L32.0072 13.7926L27.2207 9.6446L33.536 9.09655L35.9995 3.2793L38.4629 9.09655L44.7782 9.6446L39.9917 13.7926L41.4244 19.9618L35.9995 16.6888L30.5745 19.9618Z" fill="#FFA41C"/>
<path d="M54.5745 19.9618L56.0072 13.7926L51.2207 9.6446L57.536 9.09655L59.9995 3.2793L62.4629 9.09655L68.7782 9.6446L63.9917 13.7926L65.4244 19.9618L59.9995 16.6888L54.5745 19.9618Z" fill="#FFA41C"/>
<path d="M78.5745 19.9618L80.0072 13.7926L75.2207 9.6446L81.536 9.09655L83.9995 3.2793L86.4629 9.09655L92.7782 9.6446L87.9917 13.7926L89.4244 19.9618L83.9995 16.6888L78.5745 19.9618Z" fill="#FFA41C"/>
<path d="M104.849 16.8253L107.999 14.9253L111.149 16.8503L110.324 13.2503L113.099 10.8503L109.449 10.5253L107.999 7.12535L106.549 10.5003L102.899 10.8253L105.674 13.2503L104.849 16.8253ZM102.575 19.9618L104.007 13.7926L99.2207 9.6446L105.536 9.09655L107.999 3.2793L110.463 9.09655L116.778 9.6446L111.992 13.7926L113.424 19.9618L107.999 16.6888L102.575 19.9618Z" fill="#FFA41C"/>
</svg>
