<svg width="51" height="50" viewBox="0 0 51 50" fill="none" xmlns="http://www.w3.org/2000/svg">
<g clip-path="url(#clip0_1_13783)">
<path d="M25.7521 44.7919C23.0148 44.7919 20.4418 44.2724 18.0332 43.2335C15.6245 42.1947 13.5294 40.7848 11.7477 39.0039C9.96592 37.2229 8.55538 35.1287 7.51604 32.7211C6.4767 30.3136 5.95703 27.7411 5.95703 25.0038C5.95703 22.2664 6.47656 19.6934 7.51562 17.2848C8.55469 14.8762 9.96484 12.781 11.7461 10.9993C13.5273 9.21755 15.622 7.80701 18.0299 6.76767C20.4379 5.72833 23.0108 5.20866 25.7486 5.20866C27.1883 5.20866 28.5825 5.3529 29.9313 5.64137C31.2802 5.92984 32.5702 6.35185 33.8015 6.90741V10.4129C32.6129 9.75855 31.3415 9.2484 29.9872 8.88246C28.6328 8.51656 27.22 8.33361 25.7486 8.33361C21.1306 8.33361 17.1983 9.95687 13.9518 13.2034C10.7052 16.4499 9.08198 20.3822 9.08198 25.0003C9.08198 29.6183 10.7052 33.5506 13.9518 36.7971C17.1983 40.0437 21.1306 41.6669 25.7486 41.6669C30.3667 41.6669 34.299 40.0437 37.5455 36.7971C40.792 33.5506 42.4153 29.6183 42.4153 25.0003C42.4153 23.9426 42.3158 22.9163 42.1168 21.9214C41.9179 20.9264 41.6408 19.9629 41.2855 19.0307H44.6428C44.9419 19.9842 45.1663 20.9515 45.3159 21.9325C45.4655 22.9136 45.5403 23.9361 45.5403 25.0003C45.5403 27.7381 45.0208 30.311 43.9819 32.719C42.943 35.1269 41.5331 37.2216 39.7522 39.0028C37.9713 40.7841 35.877 42.1942 33.4695 43.2333C31.0619 44.2723 28.4895 44.7919 25.7521 44.7919ZM42.9362 14.0627V9.89606H38.7695V6.77116H42.9362V2.60449H46.0611V6.77116H50.2278V9.89606H46.0611V14.0627H42.9362ZM32.8447 22.5163C33.6027 22.5163 34.2455 22.2509 34.7731 21.7203C35.3006 21.1896 35.5643 20.5453 35.5643 19.7872C35.5643 19.0291 35.299 18.3864 34.7683 17.8589C34.2377 17.3314 33.5933 17.0676 32.8353 17.0676C32.0772 17.0676 31.4344 17.3329 30.9069 17.8636C30.3794 18.3942 30.1156 19.0386 30.1156 19.7967C30.1156 20.5547 30.381 21.1975 30.9116 21.725C31.4423 22.2525 32.0866 22.5163 32.8447 22.5163ZM18.662 22.5163C19.4201 22.5163 20.0629 22.2509 20.5904 21.7203C21.1179 21.1896 21.3817 20.5453 21.3817 19.7872C21.3817 19.0291 21.1163 18.3864 20.5857 17.8589C20.055 17.3314 19.4107 17.0676 18.6526 17.0676C17.8945 17.0676 17.2518 17.3329 16.7242 17.8636C16.1967 18.3942 15.933 19.0386 15.933 19.7967C15.933 20.5547 16.1983 21.1975 16.729 21.725C17.2596 22.2525 17.904 22.5163 18.662 22.5163ZM25.7486 35.8175C27.9423 35.8175 29.9344 35.2092 31.7248 33.9926C33.5152 32.776 34.8378 31.1675 35.6925 29.1669H15.8048C16.6595 31.1675 17.982 32.776 19.7725 33.9926C21.5629 35.2092 23.555 35.8175 25.7486 35.8175Z" fill="white"/>
</g>
<defs>
<clipPath id="clip0_1_13783">
<rect width="50" height="50" fill="white" transform="translate(0.75)"/>
</clipPath>
</defs>
</svg>
