<svg width="51" height="50" viewBox="0 0 51 50" fill="none" xmlns="http://www.w3.org/2000/svg">
<path d="M25.257 43.75C22.6642 43.75 20.2265 43.258 17.944 42.274C15.6614 41.29 13.6759 39.9545 11.9874 38.2677C10.299 36.5808 8.96233 34.5972 7.9774 32.3168C6.99247 30.0364 6.5 27.5998 6.5 25.007C6.5 22.4142 6.992 19.9765 7.97599 17.694C8.96002 15.4114 10.2955 13.4259 11.9823 11.7374C13.6692 10.049 15.6528 8.71233 17.9332 7.7274C20.2136 6.74247 22.6502 6.25 25.243 6.25C27.8358 6.25 30.2735 6.742 32.556 7.72599C34.8386 8.71002 36.8241 10.0455 38.5126 11.7323C40.201 13.4192 41.5377 15.4028 42.5226 17.6832C43.5075 19.9636 44 22.4002 44 24.993C44 27.5858 43.508 30.0235 42.524 32.306C41.54 34.5886 40.2045 36.5741 38.5177 38.2626C36.8308 39.951 34.8472 41.2877 32.5668 42.2726C30.2864 43.2575 27.8498 43.75 25.257 43.75ZM25.25 41.6667C29.9028 41.6667 33.8438 40.0521 37.0729 36.8229C40.3021 33.5938 41.9167 29.6528 41.9167 25C41.9167 24.7569 41.9147 24.5119 41.9107 24.2648C41.9067 24.0178 41.8913 23.7807 41.8646 23.5537C41.7711 24.4805 41.4025 25.2471 40.7588 25.8534C40.1151 26.4597 39.3259 26.7628 38.391 26.7628H33.1026C32.133 26.7628 31.303 26.4181 30.6126 25.7288C29.9222 25.0394 29.5769 24.2107 29.5769 23.2427V21.4826H22.5256V17.9624C22.5256 16.9944 22.8708 16.1625 23.5613 15.4667C24.2517 14.771 25.0817 14.4231 26.0513 14.4231H27.8141V12.8205C27.8141 11.8082 28.1446 11.0116 28.8057 10.4307C29.4668 9.84974 30.2567 9.51521 31.1755 9.42708C30.2406 9.06649 29.2826 8.79406 28.3014 8.60979C27.3202 8.42549 26.303 8.33333 25.25 8.33333C20.5972 8.33333 16.6562 9.94792 13.4271 13.1771C10.1979 16.4062 8.58333 20.3472 8.58333 25V25.6009C8.58333 25.7879 8.59668 25.9882 8.62339 26.2019H17.9583C19.9295 26.2019 21.5975 26.8844 22.9623 28.2492C24.3272 29.614 25.0096 31.276 25.0096 33.2351V35.016H19.7211V40.7052C20.5759 41.0123 21.4686 41.2493 22.3994 41.4162C23.3303 41.5832 24.2805 41.6667 25.25 41.6667Z" fill="white"/>
</svg>
