<svg width="22" height="22" viewBox="0 0 22 22" fill="none" xmlns="http://www.w3.org/2000/svg">
<path fill-rule="evenodd" clip-rule="evenodd" d="M5.78595 1.02344C3.16917 1.02344 1.04785 3.14476 1.04785 5.76153V16.2377C1.04785 18.8545 3.16917 20.9758 5.78595 20.9758H16.2621C18.8789 20.9758 21.0002 18.8545 21.0002 16.2377V5.76153C21.0002 3.14476 18.8789 1.02344 16.2621 1.02344H5.78595ZM0.0478516 5.76153C0.0478516 2.59247 2.61688 0.0234375 5.78595 0.0234375H16.2621C19.4312 0.0234375 22.0002 2.59247 22.0002 5.76153V16.2377C22.0002 19.4068 19.4312 21.9758 16.2621 21.9758H5.78595C2.61688 21.9758 0.0478516 19.4068 0.0478516 16.2377V5.76153ZM11.6107 7.30355C10.8429 7.18969 10.0587 7.32084 9.36964 7.67835C8.68063 8.03587 8.12189 8.60154 7.7729 9.2949C7.42391 9.98827 7.30244 10.774 7.42576 11.5404C7.54908 12.3068 7.91092 13.0148 8.4598 13.5637C9.00869 14.1126 9.71668 14.4744 10.4831 14.5977C11.2494 14.721 12.0352 14.5996 12.7286 14.2506C13.4219 13.9016 13.9876 13.3428 14.3451 12.6538C14.7026 11.9648 14.8338 11.1806 14.7199 10.4128C14.6038 9.62954 14.2388 8.90443 13.6789 8.34455C13.119 7.78466 12.3939 7.41969 11.6107 7.30355ZM8.90907 6.79073C9.78478 6.33634 10.7815 6.16965 11.7574 6.31436C12.7528 6.46198 13.6744 6.92584 14.386 7.63744C15.0976 8.34903 15.5615 9.27063 15.7091 10.2661C15.8538 11.242 15.6871 12.2387 15.2327 13.1144C14.7784 13.9901 14.0594 14.7002 13.1782 15.1438C12.2969 15.5874 11.2982 15.7417 10.3242 15.585C9.35014 15.4283 8.45031 14.9684 7.7527 14.2708C7.05508 13.5732 6.5952 12.6733 6.43846 11.6993C6.28172 10.7252 6.43611 9.72656 6.87967 8.84531C7.32322 7.96407 8.03336 7.24512 8.90907 6.79073ZM16.7859 4.73772C16.5098 4.73772 16.2859 4.96158 16.2859 5.23772C16.2859 5.51387 16.5098 5.73772 16.7859 5.73772H16.7959C17.0721 5.73772 17.2959 5.51387 17.2959 5.23772C17.2959 4.96158 17.0721 4.73772 16.7959 4.73772H16.7859Z" fill="white"/>
</svg>
