<svg width="51" height="50" viewBox="0 0 51 50" fill="none" xmlns="http://www.w3.org/2000/svg">
<path d="M24.2743 39.1833H27.1188V36.6592C28.7347 36.4402 30.1977 35.8332 31.5078 34.8383C32.8179 33.8434 33.473 32.335 33.473 30.3131C33.473 28.8548 33.0429 27.5647 32.1829 26.4429C31.3229 25.3211 29.6429 24.3088 27.1429 23.4061C24.9527 22.6582 23.4983 22.0105 22.7798 21.4629C22.0614 20.9154 21.7021 20.1502 21.7021 19.1673C21.7021 18.1843 22.0701 17.3857 22.8059 16.7714C23.5418 16.1571 24.5574 15.8499 25.8528 15.8499C26.9372 15.8499 27.812 16.1057 28.477 16.6172C29.1421 17.1287 29.6536 17.7703 30.0115 18.5422L32.5835 17.5086C32.1482 16.4002 31.4383 15.4513 30.4541 14.6621C29.4699 13.8728 28.3928 13.4328 27.223 13.342V10.8179H24.3785V13.342C22.6023 13.6838 21.2381 14.4043 20.2859 15.5034C19.3337 16.6025 18.8577 17.8238 18.8577 19.1673C18.8577 20.7324 19.3318 21.9918 20.2799 22.9453C21.2281 23.8988 22.7732 24.7602 24.9154 25.5295C27.1296 26.3414 28.642 27.0699 29.4526 27.7149C30.2632 28.36 30.6685 29.226 30.6685 30.3131C30.6685 31.6192 30.1971 32.5681 29.2543 33.1597C28.3114 33.7513 27.247 34.0471 26.0611 34.0471C24.8886 34.0471 23.8396 33.6945 22.9141 32.9894C21.9886 32.2843 21.2775 31.2533 20.7807 29.8965L18.1445 30.9702C18.684 32.5166 19.4593 33.7453 20.4703 34.656C21.4812 35.5668 22.7492 36.1998 24.2743 36.5551V39.1833ZM25.7486 44.7922C23.0136 44.7922 20.4422 44.272 18.0343 43.2317C15.6265 42.1914 13.5318 40.7805 11.7503 38.9989C9.96878 37.2174 8.55786 35.1228 7.51755 32.7149C6.4772 30.3071 5.95703 27.7356 5.95703 25.0006C5.95703 22.2656 6.4772 19.6941 7.51755 17.2863C8.55786 14.8784 9.96878 12.7838 11.7503 11.0023C13.5318 9.22074 15.6265 7.80982 18.0343 6.76951C20.4422 5.72916 23.0136 5.20898 25.7486 5.20898C28.4837 5.20898 31.0551 5.72916 33.463 6.76951C35.8708 7.80982 37.9655 9.22074 39.747 11.0023C41.5285 12.7838 42.9394 14.8784 43.9797 17.2863C45.0201 19.6941 45.5403 22.2656 45.5403 25.0006C45.5403 27.7356 45.0201 30.3071 43.9797 32.7149C42.9394 35.1228 41.5285 37.2174 39.747 38.9989C37.9655 40.7805 35.8708 42.1914 33.463 43.2317C31.0551 44.272 28.4837 44.7922 25.7486 44.7922ZM25.7486 41.6673C30.4014 41.6673 34.3424 40.0527 37.5716 36.8235C40.8007 33.5943 42.4153 29.6534 42.4153 25.0006C42.4153 20.3478 40.8007 16.4068 37.5716 13.1777C34.3424 9.94852 30.4014 8.33393 25.7486 8.33393C21.0959 8.33393 17.1549 9.94852 13.9257 13.1777C10.6966 16.4068 9.08198 20.3478 9.08198 25.0006C9.08198 29.6534 10.6966 33.5943 13.9257 36.8235C17.1549 40.0527 21.0959 41.6673 25.7486 41.6673Z" fill="white"/>
</svg>
