<svg width="29" height="36" viewBox="0 0 29 36" fill="none" xmlns="http://www.w3.org/2000/svg">
<path d="M4.02746 24.9802V2.93767C4.02746 2.3317 4.27592 1.78103 4.67412 1.38295C5.07343 0.984869 5.6258 0.738281 6.23364 0.738281H23.7666C23.9196 0.738281 24.0583 0.800205 24.1592 0.899724L28.8278 5.55393C28.9343 5.65456 29.0008 5.7972 29.0008 5.95533V30.4173C29.0008 31.021 28.7524 31.5706 28.3542 31.9698C27.9549 32.3701 27.4025 32.6167 26.7947 32.6167H9.8873C9.64661 33.0524 9.34491 33.4515 8.99441 33.801C8.04161 34.7508 6.72279 35.3391 5.26864 35.3391C3.81561 35.3391 2.49789 34.7508 1.5451 33.801C0.590088 32.8489 0 31.5341 0 30.0867C0 28.637 0.590088 27.3222 1.54288 26.3724C2.21616 25.7012 3.07134 25.2113 4.02857 24.9802H4.02746ZM5.13665 2.93767V24.8353L5.26864 24.8331C6.72057 24.8331 8.03829 25.4214 8.99441 26.3735C9.94831 27.3266 10.5384 28.6381 10.5384 30.0856C10.5384 30.5787 10.4696 31.0575 10.3421 31.5109H26.7947C27.0964 31.5109 27.3703 31.3882 27.5689 31.1891C27.7685 30.9923 27.8916 30.7181 27.8916 30.4173V6.50822H23.7666C23.4604 6.50822 23.212 6.26052 23.212 5.95533V1.84295H13.4811V8.27303C13.4811 8.57823 13.2326 8.82592 12.9265 8.82592C12.7435 8.82592 12.5804 8.73635 12.4795 8.60034L10.7625 6.64644L9.01326 8.63573C8.8125 8.86462 8.46311 8.88785 8.2335 8.6877C8.10927 8.57933 8.04494 8.42674 8.04494 8.27303L8.04272 1.84295H6.23364C5.93194 1.84295 5.65797 1.96569 5.45943 2.16473C5.26088 2.36267 5.13665 2.6369 5.13665 2.93656V2.93767ZM16.5136 9.63093C17.4087 9.63093 18.2229 9.99473 18.8107 10.5819C19.3997 11.1668 19.7646 11.9785 19.7646 12.8731C19.7646 13.7676 19.4008 14.5793 18.8118 15.1653L18.7786 15.1963C18.1918 15.7647 17.3921 16.1152 16.5136 16.1152C15.6163 16.1152 14.8021 15.7525 14.2142 15.1653C13.6264 14.5793 13.2615 13.7676 13.2615 12.8731C13.2615 11.9785 13.6253 11.1668 14.2142 10.5808C14.8021 9.99473 15.6163 9.63093 16.5136 9.63093ZM16.5125 16.9666C18.2273 16.9666 19.7846 17.6644 20.9126 18.789L20.9426 18.8221C22.0529 19.9445 22.7406 21.4837 22.7406 23.1756V24.2404C22.7406 24.5456 22.4921 24.7933 22.186 24.7933H10.839C10.5329 24.7933 10.2844 24.5456 10.2844 24.2404V23.1756C10.2844 21.4683 10.9843 19.9146 12.1123 18.7901C13.2404 17.6655 14.7977 16.9666 16.5114 16.9666H16.5125ZM2.85061 30.8375L4.11065 32.0936C4.32694 32.3093 4.67856 32.3093 4.89485 32.0936L7.71108 28.8272C7.90962 28.5961 7.88189 28.2478 7.65007 28.0498C7.41825 27.8519 7.06886 27.8795 6.87031 28.1106L4.47336 30.8917L3.63481 30.0557C3.41852 29.8401 3.06691 29.8401 2.85061 30.0557C2.63432 30.2713 2.63432 30.6219 2.85061 30.8375Z" fill="url(#paint0_linear_1_13595)"/>
<defs>
<linearGradient id="paint0_linear_1_13595" x1="14.5004" y1="0.738281" x2="14.5004" y2="35.3391" gradientUnits="userSpaceOnUse">
<stop stop-color="#026671"/>
<stop offset="1" stop-color="#015898"/>
</linearGradient>
</defs>
</svg>
