<svg width="24" height="35" viewBox="0 0 24 35" fill="none" xmlns="http://www.w3.org/2000/svg">
<path d="M19.5789 4.55289H18.9474C18.7799 4.55289 18.6192 4.61943 18.5008 4.73787C18.3823 4.85632 18.3158 5.01696 18.3158 5.18447C18.3158 5.35197 18.3823 5.51262 18.5008 5.63106C18.6192 5.74951 18.7799 5.81605 18.9474 5.81605H19.5789C19.7465 5.81605 19.9071 5.88259 20.0255 6.00103C20.144 6.11948 20.2105 6.28012 20.2105 6.44763V30.4476C20.2105 30.6151 20.144 30.7758 20.0255 30.8942C19.9071 31.0127 19.7465 31.0792 19.5789 31.0792H4.42105C4.25355 31.0792 4.0929 31.0127 3.97446 30.8942C3.85601 30.7758 3.78947 30.6151 3.78947 30.4476C3.78947 30.2801 3.72293 30.1195 3.60449 30.001C3.48604 29.8826 3.3254 29.816 3.15789 29.816C2.99039 29.816 2.82974 29.8826 2.7113 30.001C2.59286 30.1195 2.52632 30.2801 2.52632 30.4476C2.52632 30.9501 2.72594 31.4321 3.08127 31.7874C3.4366 32.1427 3.91854 32.3424 4.42105 32.3424H19.5789C20.0815 32.3424 20.5634 32.1427 20.9187 31.7874C21.2741 31.4321 21.4737 30.9501 21.4737 30.4476V6.44763C21.4737 5.94511 21.2741 5.46318 20.9187 5.10784C20.5634 4.75251 20.0815 4.55289 19.5789 4.55289ZM14.5263 12.1318H6.94737C6.77986 12.1318 6.61922 12.1984 6.50077 12.3168C6.38233 12.4353 6.31579 12.5959 6.31579 12.7634C6.31579 12.9309 6.38233 13.0916 6.50077 13.21C6.61922 13.3285 6.77986 13.395 6.94737 13.395H14.5263C14.6938 13.395 14.8545 13.3285 14.9729 13.21C15.0914 13.0916 15.1579 12.9309 15.1579 12.7634C15.1579 12.5959 15.0914 12.4353 14.9729 12.3168C14.8545 12.1984 14.6938 12.1318 14.5263 12.1318ZM11.3684 8.97394H6.94737C6.77986 8.97394 6.61922 9.04048 6.50077 9.15893C6.38233 9.27737 6.31579 9.43801 6.31579 9.60552C6.31579 9.77302 6.38233 9.93367 6.50077 10.0521C6.61922 10.1706 6.77986 10.2371 6.94737 10.2371H11.3684C11.5359 10.2371 11.6966 10.1706 11.815 10.0521C11.9335 9.93367 12 9.77302 12 9.60552C12 9.43801 11.9335 9.27737 11.815 9.15893C11.6966 9.04048 11.5359 8.97394 11.3684 8.97394ZM24 5.69605V31.1992C23.9817 32.1876 23.5728 33.1284 22.8627 33.8161C22.1525 34.5038 21.199 34.8822 20.2105 34.8687H3.78947C2.80105 34.8822 1.84749 34.5038 1.13734 33.8161C0.427202 33.1284 0.0182752 32.1876 0 31.1992V5.69605C0.0182752 4.7077 0.427202 3.7668 1.13734 3.07915C1.84749 2.39149 2.80105 2.01305 3.78947 2.02657H5.05263C5.22014 2.02657 5.38078 2.09311 5.49923 2.21156C5.61767 2.33 5.68421 2.49065 5.68421 2.65815C5.68421 2.82566 5.61767 2.9863 5.49923 3.10475C5.38078 3.22319 5.22014 3.28973 5.05263 3.28973H3.78947C3.13555 3.27447 2.50228 3.51926 2.02864 3.9704C1.55501 4.42153 1.27971 5.04215 1.26316 5.69605V31.1992C1.27971 31.8531 1.55501 32.4737 2.02864 32.9249C2.50228 33.376 3.13555 33.6208 3.78947 33.6055H20.2105C20.8645 33.6208 21.4977 33.376 21.9714 32.9249C22.445 32.4737 22.7203 31.8531 22.7368 31.1992V5.69605C22.7203 5.04215 22.445 4.42153 21.9714 3.9704C21.4977 3.51926 20.8645 3.27447 20.2105 3.28973H17.4126C17.5742 3.53475 17.6665 3.81884 17.68 4.112C17.6934 4.40516 17.6274 4.69651 17.489 4.95527C17.3505 5.21404 17.1448 5.43061 16.8934 5.58212C16.6421 5.73363 16.3545 5.81445 16.0611 5.81605H4.42105C4.25355 5.81605 4.0929 5.88259 3.97446 6.00103C3.85601 6.11948 3.78947 6.28012 3.78947 6.44763V27.9213C3.78947 28.0888 3.72293 28.2495 3.60449 28.3679C3.48604 28.4863 3.3254 28.5529 3.15789 28.5529C2.99039 28.5529 2.82974 28.4863 2.7113 28.3679C2.59286 28.2495 2.52632 28.0888 2.52632 27.9213V6.44763C2.52632 5.94511 2.72594 5.46318 3.08127 5.10784C3.4366 4.75251 3.91854 4.55289 4.42105 4.55289H6.35368C6.32793 4.43464 6.31522 4.31391 6.31579 4.19289C6.31579 3.7624 6.4868 3.34954 6.7912 3.04514C7.0956 2.74074 7.50846 2.56973 7.93895 2.56973H9.5621C9.5621 1.92316 9.81895 1.30307 10.2761 0.845879C10.7333 0.388685 11.3534 0.131836 12 0.131836C12.6466 0.131836 13.2667 0.388685 13.7239 0.845879C14.181 1.30307 14.4379 1.92316 14.4379 2.56973H15.9347C15.9562 2.41798 16.0321 2.2792 16.1483 2.17927C16.2645 2.07933 16.4131 2.02506 16.5663 2.02657H20.2105C21.199 2.01305 22.1525 2.39149 22.8627 3.07915C23.5728 3.7668 23.9817 4.7077 24 5.69605ZM15.7895 27.8518H8.21053C7.87552 27.8518 7.55423 27.7188 7.31734 27.4819C7.08045 27.245 6.94737 26.9237 6.94737 26.5887V17.8855C6.94737 17.5505 7.08045 17.2292 7.31734 16.9923C7.55423 16.7554 7.87552 16.6224 8.21053 16.6224H15.7895C16.1245 16.6224 16.4458 16.7554 16.6827 16.9923C16.9195 17.2292 17.0526 17.5505 17.0526 17.8855V26.5887C17.0526 26.9237 16.9195 27.245 16.6827 27.4819C16.4458 27.7188 16.1245 27.8518 15.7895 27.8518Z" fill="url(#paint0_linear_1_13642)"/>
<defs>
<linearGradient id="paint0_linear_1_13642" x1="12" y1="0.131836" x2="12" y2="34.869" gradientUnits="userSpaceOnUse">
<stop stop-color="#026671"/>
<stop offset="1" stop-color="#015898"/>
</linearGradient>
</defs>
</svg>
