<svg width="35" height="35" viewBox="0 0 35 35" fill="none" xmlns="http://www.w3.org/2000/svg">
<path d="M17.0177 0C7.62864 0 0 7.62864 0 17.0177C0 26.4068 7.62864 34.0355 17.0177 34.0355C17.5165 34.0355 17.898 33.654 17.898 33.1552C17.898 32.6564 17.5165 32.275 17.0177 32.275C8.59689 32.275 1.76045 25.4386 1.76045 17.0177C1.76045 8.59689 8.59689 1.76045 17.0177 1.76045C25.4386 1.76045 32.275 8.59689 32.275 17.0177C32.275 17.5165 32.6564 17.898 33.1552 17.898C33.654 17.898 34.0355 17.5165 34.0355 17.0177C34.0355 7.62864 26.4068 0 17.0177 0Z" fill="url(#paint0_linear_1_13644)"/>
<path d="M24.0309 24.0302C21.7423 26.3188 21.7423 30.0451 24.0309 32.3337C26.3195 34.6223 30.0458 34.6223 32.3344 32.3337C34.623 30.0451 34.623 26.3188 32.3344 24.0302C30.0458 21.7416 26.3195 21.7123 24.0309 24.0302ZM30.2218 29.0475H29.0482V30.2211C29.0482 30.7199 28.6668 31.1014 28.168 31.1014C27.6692 31.1014 27.2877 30.7199 27.2877 30.2211V29.0475H26.1141C25.6153 29.0475 25.2339 28.6661 25.2339 28.1673C25.2339 27.6685 25.6153 27.287 26.1141 27.287H27.2877V26.1134C27.2877 25.6146 27.6692 25.2332 28.168 25.2332C28.6668 25.2332 29.0482 25.6146 29.0482 26.1134V27.287H30.2218C30.7206 27.287 31.1021 27.6685 31.1021 28.1673C31.1021 28.6661 30.7206 29.0475 30.2218 29.0475Z" fill="url(#paint1_linear_1_13644)"/>
<path d="M17.0166 24.0592C17.5154 24.0592 17.8968 23.6778 17.8968 23.179V23.0616C19.2759 22.6802 20.2734 21.4185 20.2734 19.9222C20.2734 18.8365 19.7453 17.8389 18.8651 17.2228L16.1364 15.345C15.7549 15.0516 15.5202 14.6114 15.5202 14.1127C15.5202 13.2911 16.1951 12.6163 17.0166 12.6163C17.6328 12.6163 18.1609 12.9684 18.3956 13.5258C18.5717 13.9659 19.0998 14.1713 19.5399 13.9953C19.98 13.8192 20.1854 13.2911 20.0094 12.851C19.6279 11.9121 18.8357 11.2372 17.8968 10.9732V10.8558C17.8968 10.357 17.5154 9.97559 17.0166 9.97559C16.5178 9.97559 16.1364 10.357 16.1364 10.8558V10.9732C14.7574 11.3546 13.7598 12.6163 13.7598 14.1127C13.7598 15.1689 14.2586 16.1372 15.1388 16.7533L17.8675 18.6605C18.2783 18.9539 18.513 19.394 18.513 19.8928C18.513 20.7144 17.8382 21.3892 17.0166 21.3892C16.4298 21.3892 15.8723 21.0371 15.6376 20.4796C15.4322 20.0395 14.9334 19.8341 14.4933 20.0102C14.0532 20.2156 13.8478 20.7144 14.0238 21.1545C14.4346 22.064 15.1975 22.7389 16.1364 23.0029V23.179C16.1364 23.6778 16.5178 24.0592 17.0166 24.0592Z" fill="url(#paint2_linear_1_13644)"/>
<defs>
<linearGradient id="paint0_linear_1_13644" x1="17.0177" y1="0" x2="17.0177" y2="34.0355" gradientUnits="userSpaceOnUse">
<stop stop-color="#026671"/>
<stop offset="1" stop-color="#015898"/>
</linearGradient>
<linearGradient id="paint1_linear_1_13644" x1="28.1826" y1="22.3027" x2="28.1826" y2="34.0501" gradientUnits="userSpaceOnUse">
<stop stop-color="#026671"/>
<stop offset="1" stop-color="#015898"/>
</linearGradient>
<linearGradient id="paint2_linear_1_13644" x1="17.0166" y1="9.97559" x2="17.0166" y2="24.0592" gradientUnits="userSpaceOnUse">
<stop stop-color="#026671"/>
<stop offset="1" stop-color="#015898"/>
</linearGradient>
</defs>
</svg>
