<svg width="31" height="33" viewBox="0 0 31 33" fill="none" xmlns="http://www.w3.org/2000/svg">
<path fill-rule="evenodd" clip-rule="evenodd" d="M21.6887 5.2052C21.6349 5.12012 21.5684 5.04278 21.489 4.97446L17.2826 1.39857C17.1687 1.30189 17.0433 1.22455 16.9089 1.16912V3.96383C16.9089 4.28996 17.0394 4.60964 17.2723 4.84037C17.5014 5.07369 17.8149 5.20519 18.1425 5.20519L21.6887 5.2052ZM18.1427 11.7098H28.7106C29.0382 11.7098 29.3517 11.8413 29.5795 12.0747C29.8124 12.3054 29.9429 12.6212 29.9429 12.9512V23.5964C29.9429 23.9264 29.8124 24.2422 29.5795 24.4729C29.3517 24.7075 29.0382 24.839 28.7106 24.839H18.1427C17.815 24.839 17.5015 24.7075 17.2725 24.4729C17.0396 24.2422 16.909 23.9264 16.909 23.5964V12.9512C16.909 12.6212 17.0395 12.3054 17.2725 12.0747C17.5015 11.8413 17.815 11.7098 18.1427 11.7098ZM4.05164 31.9353H20.2554C20.6751 31.9353 21.0795 31.769 21.3751 31.4673C21.6746 31.1695 21.841 30.7609 21.841 30.3381V27.0381C21.841 26.8963 21.8973 26.7622 21.9958 26.663C22.0944 26.5637 22.2287 26.507 22.3695 26.507C22.5102 26.507 22.6433 26.5637 22.7432 26.663C22.8417 26.7622 22.898 26.8963 22.898 27.0381V30.3381C22.898 31.0445 22.619 31.7225 22.1225 32.2188C21.6298 32.7203 20.9567 33 20.2554 33H2.64261C1.94133 33 1.2682 32.7203 0.77551 32.2188C0.27899 31.7225 0 31.0445 0 30.3381V2.66192C0 1.95552 0.278977 1.27747 0.77551 0.781178C1.2682 0.279742 1.94133 0 2.64261 0H16.3805C16.9614 0 17.522 0.20625 17.966 0.581362L22.1725 4.16253C22.6332 4.55312 22.8981 5.13062 22.8981 5.73775V9.641C22.8981 9.77893 22.8418 9.91815 22.7432 10.0174C22.6434 10.1167 22.5103 10.1734 22.3695 10.1734C22.2288 10.1734 22.0944 10.1167 21.9959 10.0174C21.8974 9.91814 21.841 9.77892 21.841 9.641V6.27005H18.1427C17.5361 6.27005 16.9513 6.02512 16.5213 5.59199C16.0951 5.15887 15.852 4.57364 15.852 3.9639V1.06478H4.0516L4.05164 31.9353ZM18.1427 10.6449H28.7106C29.3159 10.6449 29.9007 10.8899 30.3307 11.3191C30.7568 11.7522 31 12.3414 31 12.9511V23.5962C31 24.2073 30.7569 24.7963 30.3307 25.2295C29.9007 25.6587 29.3159 25.9037 28.7106 25.9037H18.1427C17.5361 25.9037 16.9512 25.6587 16.5213 25.2295C16.0951 24.7963 15.852 24.2072 15.852 23.5962V12.9511C15.852 12.3413 16.0951 11.7522 16.5213 11.3191C16.9512 10.8899 17.5361 10.6449 18.1427 10.6449ZM28.7309 14.7363C28.8333 14.637 28.9676 14.5803 29.1084 14.5803C29.2453 14.5803 29.3797 14.637 29.4808 14.7363C29.5793 14.8355 29.6369 14.9709 29.6369 15.1127C29.6369 15.2545 29.5793 15.3885 29.4808 15.4878L23.9894 21.0206C23.5595 21.4498 22.9785 21.6948 22.3757 21.6948C21.7666 21.6948 21.1818 21.4499 20.7518 21.0129L18.4265 18.65C18.328 18.5469 18.2717 18.4128 18.2755 18.271C18.2755 18.1318 18.3318 17.9939 18.4304 17.8946C18.5289 17.7954 18.6633 17.7412 18.804 17.7412C18.9448 17.7412 19.0792 17.7979 19.1777 17.8985L21.5055 20.2652C21.7346 20.4985 22.0481 20.63 22.3757 20.63C22.6995 20.63 23.0104 20.4985 23.2395 20.2678L28.7309 14.7363Z" fill="url(#paint0_linear_1_13655)"/>
<defs>
<linearGradient id="paint0_linear_1_13655" x1="15.5" y1="0" x2="15.5" y2="33" gradientUnits="userSpaceOnUse">
<stop stop-color="#026671"/>
<stop offset="1" stop-color="#015898"/>
</linearGradient>
</defs>
</svg>
