<svg width="34" height="34" viewBox="0 0 34 34" fill="none" xmlns="http://www.w3.org/2000/svg">
<path fill-rule="evenodd" clip-rule="evenodd" d="M33.4167 5.82849C33.4167 2.6095 30.8072 0 27.5882 0H5.82849C2.6095 0 0 2.6095 0 5.82849V15.1541C0 15.7978 0.521906 16.3198 1.1657 16.3198C1.80949 16.3198 2.3314 15.7978 2.3314 15.1541V5.82849C2.3314 3.8971 3.8971 2.3314 5.82849 2.3314H27.5882C29.5195 2.3314 31.0853 3.8971 31.0853 5.82849L31.0853 27.5882C31.0853 29.5195 29.5195 31.0853 27.5882 31.0853H18.2626C17.6188 31.0853 17.0969 31.6072 17.0969 32.251C17.0969 32.8947 17.6188 33.4167 18.2626 33.4167H27.5882C30.8072 33.4167 33.4167 30.8072 33.4167 27.5882V5.82849Z" fill="url(#paint0_linear_1_13656)"/>
<path fill-rule="evenodd" clip-rule="evenodd" d="M22.5378 7.38249C22.5378 6.7387 22.0159 6.2168 21.3721 6.2168H12.0466C11.4028 6.2168 10.8809 6.7387 10.8809 7.38249C10.8809 8.02629 11.4028 8.54819 12.0466 8.54819H21.3721C22.0159 8.54819 22.5378 8.02629 22.5378 7.38249Z" fill="url(#paint1_linear_1_13656)"/>
<path fill-rule="evenodd" clip-rule="evenodd" d="M17.874 24.48C17.874 19.5443 13.8727 15.543 8.93702 15.543C4.00123 15.543 0 19.5443 0 24.48C0 29.4157 4.00123 33.417 8.93702 33.417C13.8727 33.417 17.874 29.4157 17.874 24.48ZM12.8698 23.7499C13.325 23.2947 13.325 22.5567 12.8698 22.1015C12.4146 21.6463 11.6765 21.6463 11.2213 22.1015L8.43465 24.8881C8.2829 25.0398 8.03686 25.0398 7.88512 24.8881L6.65276 23.6558C6.19753 23.2005 5.45944 23.2005 5.00422 23.6558C4.54899 24.111 4.54899 24.849 5.00422 25.3042L6.23658 26.5366C7.29879 27.5988 9.02098 27.5988 10.0832 26.5366L12.8698 23.7499Z" fill="url(#paint2_linear_1_13656)"/>
<defs>
<linearGradient id="paint0_linear_1_13656" x1="16.7083" y1="0" x2="16.7083" y2="33.4167" gradientUnits="userSpaceOnUse">
<stop stop-color="#026671"/>
<stop offset="1" stop-color="#015898"/>
</linearGradient>
<linearGradient id="paint1_linear_1_13656" x1="16.7093" y1="6.2168" x2="16.7093" y2="8.54819" gradientUnits="userSpaceOnUse">
<stop stop-color="#026671"/>
<stop offset="1" stop-color="#015898"/>
</linearGradient>
<linearGradient id="paint2_linear_1_13656" x1="8.93702" y1="15.543" x2="8.93702" y2="33.417" gradientUnits="userSpaceOnUse">
<stop stop-color="#026671"/>
<stop offset="1" stop-color="#015898"/>
</linearGradient>
</defs>
</svg>
