<svg width="51" height="50" viewBox="0 0 51 50" fill="none" xmlns="http://www.w3.org/2000/svg">
<path d="M33.582 22.6768C34.0921 22.6768 34.5268 22.4972 34.886 22.138C35.2453 21.7788 35.4249 21.3441 35.4249 20.8339C35.4249 20.3238 35.2453 19.8891 34.886 19.5299C34.5268 19.1706 34.0921 18.991 33.582 18.991C33.0718 18.991 32.6371 19.1706 32.2779 19.5299C31.9187 19.8891 31.7391 20.3238 31.7391 20.8339C31.7391 21.3441 31.9187 21.7788 32.2779 22.138C32.6371 22.4972 33.0718 22.6768 33.582 22.6768ZM16.9153 18.2297H27.332V15.1048H16.9153V18.2297ZM10.4049 42.7089C9.30453 38.9108 8.20477 35.1314 7.10568 31.3708C6.00658 27.6101 5.45703 23.7506 5.45703 19.7923C5.45703 16.8916 6.46799 14.4304 8.4899 12.4085C10.5118 10.3866 12.973 9.37565 15.8736 9.37565H26.8112C27.7647 8.12301 28.9085 7.11541 30.2427 6.35284C31.5768 5.59027 33.0371 5.20898 34.6236 5.20898C35.1979 5.20898 35.6886 5.41265 36.0959 5.81997C36.5033 6.22727 36.7069 6.71803 36.7069 7.29227C36.7069 7.43383 36.6875 7.57539 36.6488 7.71695C36.6101 7.85848 36.5694 7.98935 36.5266 8.10956C36.3343 8.61171 36.1707 9.12588 36.0358 9.65206C35.9009 10.1782 35.7854 10.7098 35.6893 11.2466L41.11 16.6673H45.0403V29.3956L39.3552 31.2626L35.9257 42.7089H26.2904V38.5422H20.0403V42.7089H10.4049ZM12.7486 39.5839H16.9153V35.4173H29.4153V39.5839H33.582L36.8111 28.8548L41.9153 27.136V19.7923H39.832L32.5403 12.5006C32.5403 11.8062 32.5837 11.1378 32.6705 10.4954C32.7573 9.85303 32.9009 9.20867 33.1012 8.56232C32.0943 8.8401 31.2155 9.32419 30.465 10.0146C29.7145 10.7051 29.1389 11.5337 28.7382 12.5006H15.8736C13.8598 12.5006 12.141 13.2124 10.7174 14.636C9.29378 16.0596 8.58198 17.7784 8.58198 19.7923C8.58198 23.195 9.05073 26.5197 9.98823 29.7662C10.9257 33.0127 11.8459 36.2853 12.7486 39.5839Z" fill="white"/>
</svg>
