<svg width="24" height="20" viewBox="0 0 24 20" fill="none" xmlns="http://www.w3.org/2000/svg">
<path d="M23.3652 1.03838C22.4076 1.71385 21.3473 2.23049 20.2252 2.56838C19.623 1.87589 18.8226 1.38507 17.9323 1.1623C17.042 0.939536 16.1047 0.995572 15.2473 1.32283C14.3899 1.65009 13.6537 2.23278 13.1382 2.99209C12.6228 3.75141 12.3529 4.65071 12.3652 5.56838V6.56838C10.6079 6.61394 8.86651 6.22419 7.29624 5.43382C5.72598 4.64346 4.37555 3.47701 3.36523 2.03838C3.36523 2.03838 -0.634766 11.0384 8.36523 15.0384C6.30576 16.4363 3.85239 17.1373 1.36523 17.0384C10.3652 22.0384 21.3652 17.0384 21.3652 5.53838C21.3643 5.25983 21.3375 4.98197 21.2852 4.70838C22.3058 3.70187 23.0261 2.43109 23.3652 1.03838V1.03838Z" stroke="white" stroke-linecap="round" stroke-linejoin="round"/>
</svg>
